<?xml version="1.0" encoding="UTF-8" standalone="no"?>
<!-- Created with Inkscape (http://www.inkscape.org/) -->

<svg
   width="512"
   height="512"
   viewBox="0 0 135.46666 135.46667"
   version="1.1"
   id="svg5"
   inkscape:version="1.2 (dc2aedaf03, 2022-05-15)"
   sodipodi:docname="light.svg"
   xml:space="preserve"
   xmlns:inkscape="http://www.inkscape.org/namespaces/inkscape"
   xmlns:sodipodi="http://sodipodi.sourceforge.net/DTD/sodipodi-0.dtd"
   xmlns="http://www.w3.org/2000/svg"
   xmlns:svg="http://www.w3.org/2000/svg"><sodipodi:namedview
     id="namedview7"
     pagecolor="#ffffff"
     bordercolor="#000000"
     borderopacity="0.25"
     inkscape:showpageshadow="2"
     inkscape:pageopacity="0"
     inkscape:pagecheckerboard="0"
     inkscape:deskcolor="#d1d1d1"
     inkscape:document-units="mm"
     showgrid="false"
     inkscape:zoom="1.0444209"
     inkscape:cx="206.81317"
     inkscape:cy="207.29191"
     inkscape:window-width="1350"
     inkscape:window-height="1032"
     inkscape:window-x="1998"
     inkscape:window-y="0"
     inkscape:window-maximized="0"
     inkscape:current-layer="layer1"
     showguides="false" /><defs
     id="defs2"><inkscape:path-effect
       effect="bspline"
       id="path-effect2994"
       is_visible="true"
       lpeversion="1"
       weight="33.333333"
       steps="2"
       helper_size="0"
       apply_no_weight="true"
       apply_with_weight="true"
       only_selected="false" /><inkscape:path-effect
       effect="bspline"
       id="path-effect2990"
       is_visible="true"
       lpeversion="1"
       weight="33.333333"
       steps="2"
       helper_size="0"
       apply_no_weight="true"
       apply_with_weight="true"
       only_selected="false" /></defs><g
     inkscape:label="Layer 1"
     inkscape:groupmode="layer"
     id="layer1"><g
       id="g1064"><path
         style="display:inline;fill:#000019;fill-opacity:1;stroke:#000000;stroke-width:0.876941;stroke-dasharray:none;stroke-opacity:1"
         d="m 125.34331,119.76394 c -2.91179,4.61758 -6.65664,8.18748 -11.51569,10.97772 -5.191,2.98086 -7.86169,3.83408 -13.44586,4.2956 -7.852467,0.64902 -71.858277,-4.85978 -77.712715,-6.68849 C 10.591607,124.57621 1.5165049,113.1484 0.50850859,100.44313 0.05272111,94.698166 5.2145197,30.755367 6.6318309,24.589284 9.496728,12.125392 21.233551,1.964708 34.449193,0.50751164 40.911519,-0.20505644 65.751589,2.1821386 66.21998,3.5607448 c 0.215957,0.6356201 -0.335057,9.9898122 -1.224475,20.7870932 -1.315617,15.971282 -1.383912,20.72478 -0.366312,25.495727 1.547899,7.257223 5.651514,13.965017 11.387457,18.614011 6.497752,5.266447 12.773664,6.806806 34.3557,8.432251 9.84215,0.741264 18.77699,1.550615 19.85521,1.798566 1.87617,0.431453 1.91299,1.029209 0.85701,13.912314 -1.28234,15.644723 -2.6963,22.334503 -5.74126,27.163233 z"
         id="path444" /><path
         style="fill:#ffffff;fill-opacity:1;stroke:#000000;stroke-width:0.805246;stroke-dasharray:none;stroke-opacity:1"
         d="m 119.30538,119.76135 c -2.60458,4.31492 -6.89145,7.28832 -11.2554,9.8846 -4.66209,2.77364 -8.520426,2.36307 -13.545424,2.77542 -7.066158,0.57989 -64.701306,-4.80906 -69.977773,-6.54295 C 13.641681,122.30146 5.4318082,111.5645 4.4790579,99.659799 4.0482441,94.276818 8.4662368,34.399598 9.7200106,28.628853 12.254346,16.964081 22.783057,7.488449 34.674042,6.1707247 40.488625,5.5263572 62.857188,7.851248 63.283741,9.1442751 c 0.196663,0.5961604 1.948499,9.1417769 1.186456,19.2524849 -1.127198,14.95571 -0.243026,19.765265 0.690018,24.237882 1.419287,6.803426 4.479779,10.929305 9.659656,15.304558 5.867832,4.956343 11.651361,7.750604 31.084449,9.350314 8.86216,0.729529 19.86543,4.363038 20.83689,4.59915 1.6904,0.410849 0.35413,0.656647 -0.5504,12.720563 -1.09841,14.649953 -4.16173,20.639923 -6.88543,25.152123 z"
         id="path444-6"
         sodipodi:nodetypes="sssssssssssssss" /><path
         style="fill:#ffffff;fill-opacity:1;stroke:#000000;stroke-width:0.876941;stroke-dasharray:none;stroke-opacity:1"
         d="M 130.53374,63.277277 C 127.91634,60.412791 118.02589,44.55942 106.2501,30.781842 93.253462,15.575876 78.405839,2.4651814 78.52869,2.3882407 c 0.140821,-0.08818 7.208191,0.3733214 15.705265,1.0255934 18.194835,1.3967044 21.968415,2.5089474 29.444035,8.6784619 10.11505,8.347791 12.36109,15.887271 10.90782,36.615202 -1.29811,18.51481 -1.09959,17.800982 -4.05207,14.569779 z"
         id="path448"
         sodipodi:nodetypes="sssssss" /><path
         style="fill:#000019;fill-opacity:1;stroke:#000000;stroke-width:0.876939;stroke-dasharray:none;stroke-opacity:1"
         d="m 71.105336,6.679551 c 0.741596,0.7417687 1.483183,1.4835373 2.224777,2.225301 0.444954,0.1483522 0.959646,0.1635825 1.33487,0.4450641 0.348875,0.2617196 2.224775,4.7050369 2.224775,5.3407199"
         id="path1963" /><path
         style="fill:#000019;fill-opacity:1;stroke:#000000;stroke-width:0.876939;stroke-dasharray:none;stroke-opacity:1"
         d="m 84.898956,22.701727 c 0.741597,0.890118 1.405664,1.851053 2.224785,2.67036 1.19007,1.190358 1.344121,0.458955 2.224777,1.780242 0.460312,0.690631 -0.755862,0.289571 0.444954,0.890125 0.132668,0.06634 0.340074,-0.104897 0.444954,0 0.204579,0.204603 0.714949,1.430239 0.889914,1.780242 0.134333,0.268711 -0.205697,1.12944 0,1.335175 0.414419,0.414519 0.444955,-0.03491 0.444955,0.890126"
         id="path1965" /><path
         style="fill:#000019;fill-opacity:1;stroke:#000000;stroke-width:0.876939;stroke-dasharray:none;stroke-opacity:1"
         d="m 102.25223,43.174507 c 0.41505,2.677078 2.48711,4.550922 4.0046,6.6759 0.50268,0.703919 0.72333,1.613626 1.33487,2.225308 0.10487,0.104898 0.37862,-0.132699 0.44495,0 0.70492,1.410181 -0.92079,0.414169 0.44496,1.780235 0.10487,0.104897 0.37862,-0.1327 0.44495,0 0.0452,0.09026 0.44495,1.488496 0.44495,1.780241"
         id="path1967" /><path
         style="fill:#000019;fill-opacity:1;stroke:#000000;stroke-width:0.876939;stroke-dasharray:none;stroke-opacity:1"
         d="m 118.71559,66.762703 c 0.84503,2.895272 3.1537,4.973716 4.44955,7.566027"
         id="path1969" /><ellipse
         style="fill:#000019;fill-opacity:1;stroke:#000000;stroke-width:0.876939;stroke-dasharray:none;stroke-opacity:1"
         id="path2027"
         cx="43.963039"
         cy="40.949207"
         rx="9.7890234"
         ry="10.236389" /><path
         style="fill:none;fill-rule:evenodd;stroke:#000000;stroke-width:0.657291px;stroke-linecap:butt;stroke-linejoin:miter;stroke-opacity:1"
         d="m 28.834553,77.889215 c 0,0 6.038663,19.355689 37.757627,17.016904 13.36093,-0.985162 38.77474,-12.12124 38.77474,-12.12124"
         id="path3098"
         sodipodi:nodetypes="css" /></g></g></svg>
