<?xml version="1.0" encoding="UTF-8" standalone="no"?>
<!-- Created with Inkscape (http://www.inkscape.org/) -->

<svg
   width="512"
   height="512"
   viewBox="0 0 135.46666 135.46667"
   version="1.1"
   id="svg5"
   inkscape:version="1.2 (dc2aedaf03, 2022-05-15)"
   sodipodi:docname="dark.svg"
   xml:space="preserve"
   xmlns:inkscape="http://www.inkscape.org/namespaces/inkscape"
   xmlns:sodipodi="http://sodipodi.sourceforge.net/DTD/sodipodi-0.dtd"
   xmlns="http://www.w3.org/2000/svg"
   xmlns:svg="http://www.w3.org/2000/svg"><sodipodi:namedview
     id="namedview7"
     pagecolor="#1e1e1e"
     bordercolor="#000000"
     borderopacity="0.25"
     inkscape:showpageshadow="2"
     inkscape:pageopacity="0"
     inkscape:pagecheckerboard="0"
     inkscape:deskcolor="#d1d1d1"
     inkscape:document-units="mm"
     showgrid="false"
     inkscape:zoom="0.7385171"
     inkscape:cx="253.21012"
     inkscape:cy="380.49221"
     inkscape:window-width="1920"
     inkscape:window-height="1009"
     inkscape:window-x="1912"
     inkscape:window-y="-8"
     inkscape:window-maximized="1"
     inkscape:current-layer="layer1"
     showguides="false" /><defs
     id="defs2"><inkscape:path-effect
       effect="bspline"
       id="path-effect2994"
       is_visible="true"
       lpeversion="1"
       weight="33.333333"
       steps="2"
       helper_size="0"
       apply_no_weight="true"
       apply_with_weight="true"
       only_selected="false" /><inkscape:path-effect
       effect="bspline"
       id="path-effect2990"
       is_visible="true"
       lpeversion="1"
       weight="33.333333"
       steps="2"
       helper_size="0"
       apply_no_weight="true"
       apply_with_weight="true"
       only_selected="false" /></defs><g
     inkscape:label="Layer 1"
     inkscape:groupmode="layer"
     id="layer1"><g
       id="g423"
       transform="matrix(2.4839608,0,0,2.4845459,-90.413542,-62.30481)"><g
         id="g1164"
         transform="rotate(-5.5327375,63.667699,52.34316)"><g
           id="g1157"><g
             id="g1151"><path
               style="fill:#ffffff;fill-opacity:1;stroke:#000000;stroke-width:0.353;stroke-dasharray:none;stroke-opacity:1"
               d="m 84.733301,75.419027 c -1.345966,1.736842 -2.985086,3.021633 -5.04042,3.950837 -2.195747,0.992683 -3.29902,1.23083 -5.554547,1.198976 -3.171728,-0.04479 -28.605552,-4.736059 -30.880504,-5.695904 -4.693121,-1.980117 -7.886117,-6.910495 -7.796992,-12.039515 0.0403,-2.3192 4.590014,-27.735159 5.39722,-30.150359 1.631655,-4.881996 6.728978,-8.496935 12.08113,-8.567744 2.617153,-0.03463 12.478114,1.885874 12.612304,2.456342 0.06187,0.26302 -0.521921,3.989043 -1.297313,8.280051 -1.146954,6.347237 -1.358783,8.248899 -1.136163,10.1997 0.338633,2.967419 1.722681,5.813929 3.840708,7.899016 2.399329,2.362016 4.854358,3.222702 13.439361,4.711579 3.915055,0.678981 7.463905,1.350022 7.886332,1.491205 0.735054,0.245669 0.726612,0.486567 -0.196464,5.606718 -1.120946,6.217706 -1.947132,8.842836 -3.354652,10.659098 z"
               id="path444" /><path
               style="fill:#ffffff;fill-opacity:1;stroke:#000000;stroke-width:0.32414;stroke-dasharray:none;stroke-opacity:1"
               d="m 82.313958,75.183629 c -1.211118,1.627513 -3.044283,2.652303 -4.893701,3.523021 -1.975765,0.930196 -3.505897,0.615959 -5.535452,0.586105 -2.853964,-0.04196 -25.739668,-4.43794 -27.786702,-5.337365 -4.222934,-1.855478 -7.096035,-6.475508 -7.015839,-11.281667 0.03626,-2.173214 4.130158,-25.98932 4.856492,-28.25249 1.468186,-4.574689 6.054826,-7.96208 10.870766,-8.028431 2.354951,-0.03245 11.227979,1.767163 11.348725,2.301723 0.05567,0.246463 0.426025,3.737945 -0.271684,7.758847 -1.032043,5.947699 -0.864387,7.908788 -0.664072,9.736792 0.304707,2.78063 1.370961,4.552303 3.276791,6.506142 2.158949,2.213334 4.368018,3.557238 12.092921,4.952394 3.522821,0.636242 7.790914,2.518963 8.17102,2.651259 0.661412,0.230204 0.11642,0.276807 -0.714177,5.074659 -1.008642,5.826325 -2.468581,8.107082 -3.735088,9.809011 z"
               id="path444-6"
               sodipodi:nodetypes="sssssssssssssss" /><path
               style="fill:#ffffff;fill-opacity:1;stroke:#000000;stroke-width:0.353;stroke-dasharray:none;stroke-opacity:1"
               d="M 89.005147,52.991203 C 88.067495,51.742059 84.719517,45.007097 80.535521,39.030546 75.917751,32.434377 70.476969,26.605755 70.529182,26.5797 c 0.05985,-0.02986 2.873888,0.429342 6.253416,1.020463 7.236603,1.265767 8.705545,1.857817 11.461668,4.619569 3.72923,3.736847 4.336661,6.84444 2.949963,15.091909 -1.238641,7.366887 -1.13139,7.088624 -2.189082,5.679562 z"
               id="path448"
               sodipodi:nodetypes="sssssss" /></g></g></g><path
         style="fill:#000019;fill-opacity:1;stroke:#000000;stroke-width:0.352999;stroke-dasharray:none;stroke-opacity:1"
         d="m 65.024729,27.76538 c 0.298554,0.298553 0.597104,0.597106 0.895657,0.895657 0.179131,0.05971 0.386337,0.06584 0.537396,0.179133 0.140451,0.105339 0.895656,1.893721 0.895656,2.149576"
         id="path1963" /><path
         style="fill:#000019;fill-opacity:1;stroke:#000000;stroke-width:0.352999;stroke-dasharray:none;stroke-opacity:1"
         d="m 70.577804,34.214114 c 0.298554,0.358262 0.565896,0.745027 0.89566,1.074788 0.479102,0.479105 0.54112,0.184724 0.895657,0.716526 0.185314,0.277971 -0.304297,0.116549 0.179131,0.358265 0.05341,0.0267 0.136908,-0.04222 0.179131,0 0.08236,0.08235 0.287826,0.575654 0.358264,0.716526 0.05408,0.108153 -0.08281,0.454586 0,0.537392 0.166838,0.166839 0.179131,-0.01405 0.179131,0.358265"
         id="path1965" /><path
         style="fill:#000019;fill-opacity:1;stroke:#000000;stroke-width:0.352999;stroke-dasharray:none;stroke-opacity:1"
         d="m 77.563934,42.454163 c 0.167092,1.077492 1.001268,1.831692 1.612183,2.68697 0.202369,0.283319 0.2912,0.649465 0.537395,0.89566 0.04222,0.04222 0.152427,-0.05341 0.179131,0 0.283789,0.567581 -0.370694,0.166698 0.179131,0.716523 0.04222,0.04222 0.152429,-0.05341 0.179131,0 0.01818,0.03633 0.179131,0.599102 0.179131,0.716526"
         id="path1967" /><path
         style="fill:#000019;fill-opacity:1;stroke:#000000;stroke-width:0.352999;stroke-dasharray:none;stroke-opacity:1"
         d="m 84.191799,51.94813 c 0.340196,1.165312 1.269627,2.001861 1.791314,3.045235"
         id="path1969" /><ellipse
         style="fill:#000019;fill-opacity:1;stroke:#000000;stroke-width:0.352999;stroke-dasharray:none;stroke-opacity:1"
         id="path2027"
         cx="54.097706"
         cy="41.558506"
         rx="3.9408927"
         ry="4.1200242" /><path
         style="fill:none;fill-rule:evenodd;stroke:#000000;stroke-width:0.264583px;stroke-linecap:butt;stroke-linejoin:miter;stroke-opacity:1"
         d="m 48.007237,56.426418 c 0,0 2.431062,7.790433 15.200573,6.8491 5.378881,-0.396516 15.610044,-4.878654 15.610044,-4.878654"
         id="path3098"
         sodipodi:nodetypes="css" /></g></g></svg>
